PathFileType	4	(X/Y/Z)	6_coords_data.trc
DataRate	CameraRate	NumFrames	NumMarkers	Units	OrigDataRate	OrigDataStartFrame	OrigNumFrames
30.0	30.0	8	21	m	30.0	1	77
Frame#	Time	THUMB_TIP	THUMB_IP	THUMB_MCP	THUMB_CMC	INDEX_TIP	INDEX_DIP	INDEX_PIP	INDEX_MCP	MIDDLE_TIP	MIDDLE_DIP	MIDDLE_PIP	MIDDLE_MCP	RING_TIP	RING_DIP	RING_PIP	RING_MCP	PINKY_TIP	PINKY_DIP	PINKY_PIP	PINKY_MCP	WRIST
X1	Y1	Z1	X2	Y2	Z2	X3	Y3	Z3	X4	Y4	Z4	X5	Y5	Z5	X6	Y6	Z6	X7	Y7	Z7	X8	Y8	Z8	X9	Y9	Z9	X10	Y10	Z10	X11	Y11	Z11	X12	Y12	Z12	X13	Y13	Z13	X14	Y14	Z14	X15	Y15	Z15	X16	Y16	Z16	X17	Y17	Z17	X18	Y18	Z18	X19	Y19	Z19	X20	Y20	Z20	X21	Y21	Z21
0	-2.749317978547796e-18	0.47096263554680284	-0.035574334245846995	-0.17188353516014382	0.48155000849315377	-0.03344869039481935	-0.15160080427119627	0.47606022421501115	-0.03100577050430431	-0.12106043081264167	0.4763755981663852	-0.025151116930608453	-0.07683924165175632	0.5242938114828943	-0.0003758176752407527	-0.10593686583616183	0.5140948590806304	-0.014662285482040516	-0.10147836749012334	0.5317934089544367	-0.00018959508048632667	-0.11193362444082317	0.4954992538959446	0.021780724291285747	-0.11563166031037247	0.49359786425049423	-0.016703663387161005	-0.08464824887553446	0.5111868801764117	-0.01260750944702882	-0.08600767583442631	0.5334964190649866	0.0051205963483013095	-0.09212390747562055	0.5002547690814587	0.03482069690722478	-0.0951313406274063	0.49653548360743804	-0.006512830844205508	-0.07063254592505536	0.5145561947700932	-0.006012839484875632	-0.07069561598729185	0.5357747621563792	0.006835567389944508	-0.07290260893080502	0.5101200841281749	0.03806680293595932	-0.07182175022657283	0.5315561977337334	0.00193841619873103	-0.060279857083139377	0.5220310379366618	-0.011384429754708991	-0.05530259814461175	0.5390585912131527	0.0008818825900770433	-0.054660702610731304	0.5158728009134447	0.02766166895328448	-0.04786764574957286	0.4622830810018608	-0.023011742144276925	-0.051989820119430985
1	0.03333333333333339	0.4717957226734204	-0.035327125778999324	-0.17196913699550304	0.4821322169136276	-0.03314872315787187	-0.15156297496433146	0.4767215186403355	-0.030642975122704974	-0.12101357937326204	0.4765592733662014	-0.02565684795356238	-0.07668523390082022	0.5247353896156121	-0.000633798364554794	-0.10623074356128998	0.5148024308963906	-0.01510356439488425	-0.10176283553741977	0.5328261060744103	-0.0007882273139769858	-0.11187362632435832	0.4965667615048397	0.021263239320937433	-0.11542733489913054	0.49509853977016527	-0.017341462950635766	-0.08552592527617858	0.512825045168704	-0.013663906968565898	-0.08602250191107386	0.5348737189595565	0.004349064020621296	-0.09225133889780585	0.5015799420707995	0.03401414801107827	-0.09501813005739956	0.49776099556399167	-0.007061400622419334	-0.07189717925952838	0.5157604223904707	-0.007029949048408479	-0.07088740467244586	0.5369035865736	0.005880415924437776	-0.0734308400644203	0.511181656727699	0.03705510919339161	-0.07231654271218807	0.5320843997482104	0.0011598539933619367	-0.06061453233088909	0.5227699836030605	-0.012310447393405033	-0.055635312269007975	0.5397761010759804	-6.832736383355353e-07	-0.055363844383325145	0.5166622825984616	0.026876011991310178	-0.048709665393892876	0.4622830810018609	-0.023011742144276925	-0.051989820119430985
2	0.06666666666666676	0.4724435244228896	-0.0350530822167735	-0.1720234972229655	0.48258851243836665	-0.03284269154208175	-0.15152487797114605	0.4772257784306546	-0.03030272439412174	-0.12096985136585872	0.47668441880659995	-0.026008549226786082	-0.07657213758024045	0.5245527377671786	-0.0005107533798837105	-0.1064663379482711	0.5153201302465934	-0.015431724612911868	-0.10198040707118627	0.5335810235376583	-0.001236840894428548	-0.11183205086453765	0.4973460688847289	0.020872579035938643	-0.11527264756319758	0.49623002209487244	-0.017736503823671312	-0.08630867184585633	0.51403825501069	-0.014451324258439757	-0.08603584288812327	0.5358850805464249	0.0037759024307716382	-0.09235201033612983	0.502543387026306	0.03340401088918865	-0.09493165825527522	0.4987056712100171	-0.007472506866204709	-0.07277392241932912	0.5166457152104517	-0.007787017895767301	-0.07102580798521474	0.5377260585683059	0.005172727948183242	-0.07382653834981245	0.511945251800635	0.036297789012705195	-0.07268574470598571	0.5320708660471543	0.0008436891580175798	-0.06086808507839664	0.5233080677732119	-0.012991831340891546	-0.055888954739225005	0.540287409677441	-0.0006421769908537822	-0.055886733504890096	0.5172194773214762	0.026299511721466495	-0.049336973421569286	0.4622830810018608	-0.023011742144276925	-0.051989820119430985
3	0.10000000000000014	0.4729272644441026	-0.03480292238995242	-0.17205714904516836	0.48293160127081636	-0.03257653810114869	-0.15149124382180837	0.47759046606011446	-0.030024112599225994	-0.12093347232717655	0.47676752101122377	-0.026243875674610617	-0.07649337140199547	0.5207906025941661	0.0011411602783366614	-0.1065568784009743	0.5156812716633223	-0.01566275356600677	-0.10213836994777364	0.5341040166249095	-0.001552663839257118	-0.11180882334890163	0.497883875202765	0.020593993576902503	-0.11516486486400973	0.49705020186328663	-0.017953242597204766	-0.08694633495821219	0.5148968534578757	-0.01500508979160231	-0.0860488819532167	0.5365928617795713	0.0033784439402030353	-0.09243155070825065	0.5032073264800467	0.03296882515202393	-0.09487353627399853	0.49938683921259275	-0.007749526543345264	-0.07335742959743491	0.5172666723346445	-0.008316788773191752	-0.07112364780635283	0.5382968409367097	0.004682416133160672	-0.07411240329507585	0.51246511055779	0.035764482641217565	-0.07295150656429755	0.5292430746156889	0.0019835100911897996	-0.06092382669442653	0.5236863239808912	-0.013463423246494854	-0.056074623373900345	0.5406368419713373	-0.0010756473461820404	-0.05626161829145798	0.5175919783960267	0.025903623674886966	-0.04978576707582422	0.462283081001861	-0.023011742144276925	-0.051989820119430985
4	0.13333333333333353	0.47326768231702276	-0.034605225413420704	-0.17207765408639986	0.4831743763704387	-0.03237447650827863	-0.15146500815594677	0.4778326557914341	-0.029825096147357733	-0.12090708478031159	0.47681946599982195	-0.026389124056088953	-0.07644296956102276	0.5007578874019459	-0.024935370012741265	-0.09836362720057501	0.5159134104845335	-0.01581105506699121	-0.10224396183355655	0.5344343894010548	-0.0017530608025535521	-0.11180199354698067	0.4982205367024487	0.020412729169928312	-0.1150990712863563	0.4976010095019314	-0.018047027382004144	-0.08740740184079449	0.515460589539906	-0.015359264302196918	-0.08606154505272201	0.5370493856265824	0.003132986152127759	-0.09249350483667912	0.5036240151428852	0.03268592282744709	-0.09484221999440973	0.4998347734784575	-0.007903060751626723	-0.07371675422480928	0.5176688726434149	-0.008651695415893945	-0.0711900066881676	0.5386607960638303	0.0043791608079289945	-0.07430704313092384	0.5127855483840889	0.035424469250563195	-0.07313179200297543	0.5102197421747097	-0.022896280005363923	-0.051582458969266554	0.523935907027183	-0.013757262316602903	-0.05620254310532774	0.5408574633379764	-0.0013324706463136993	-0.056514797761918756	0.5178163849208507	0.025661396669046654	-0.050086478873079876	0.4622830810018609	-0.023011742144276925	-0.051989820119430985
5	0.1666666666666669	0.4734863354683746	-0.034473031474749005	-0.17208977005708123	0.48333105816739264	-0.032245445294096564	-0.15144711289315954	0.47797036446335384	-0.029708709207887707	-0.12089145984760336	0.47684789681913353	-0.026463685315802565	-0.0764156249894753	0.5030306380740656	-0.027753532595056973	-0.09806153163025377	0.5160401533274878	-0.015889735211933154	-0.10230450517756273	0.5346067936812228	-0.001855326601878926	-0.11180845561625352	0.4983919135527811	0.020314193698347416	-0.11506896492316471	0.49791859414132267	-0.018059842269219195	-0.08768433560542804	0.515781613025478	-0.015546547303628255	-0.08607315443614794	0.5372998372106481	0.0030155785904494303	-0.09254022952533403	0.503838613097572	0.03253222365205399	-0.09483414891401415	0.5000843101549947	-0.007948733251906592	-0.07390256067407297	0.517891604711577	-0.008823413389567714	-0.07123138205183621	0.5388559413961285	0.004232998197686744	-0.07442617200439638	0.5129439321260085	0.035247275423766045	-0.07324159708945022	0.5122622800019841	-0.02528701863118643	-0.05141159069410639	0.5240811877556873	-0.013903143964781983	-0.056281992842702466	0.5409748168260512	-0.001442482806549239	-0.05666830791187022	0.5179219559662818	0.025547366098229496	-0.05026540909357491	0.4622830810018609	-0.023011742144276925	-0.051989820119430985
6	0.20000000000000023	0.47360581299373117	-0.03440899929219632	-0.17209592286060008	0.48341725817936343	-0.032188150775222524	-0.15143670275833115	0.47802276300209756	-0.02966793100759013	-0.12088563216980208	0.47685858204784737	-0.026482806536297754	-0.07640653972393335	0.5034134599081689	-0.02812483817209721	-0.09804772559830072	0.5160825294482705	-0.0159109577618054	-0.10232742211921886	0.5346527874965118	-0.001876622776348813	-0.11182441061756543	0.49843087936798613	0.02028398549152377	-0.11506738868202321	0.49804040158279894	-0.01802025414319175	-0.08779164488667524	0.5159069829428344	-0.015598473980218741	-0.08608277059420483	0.5373846564198487	0.003002348074919392	-0.09257341855013679	0.5038915517212501	0.03248458021399114	-0.09484450788052579	0.50017148640978	-0.007905398749672332	-0.07395348528588147	0.5179700354774546	-0.008862855302503081	-0.07125257284097919	0.5389157966223448	0.004214444204991841	-0.07448356443064441	0.5129730488872606	0.03520281997617292	-0.07329392540225022	0.5126103230984773	-0.025594350681054534	-0.051428332649131714	0.5241421124774536	-0.013929233580078137	-0.05632147854307801	0.5410096501295323	-0.0014343570339309109	-0.05674130309243386	0.517933267319539	0.025537200362462986	-0.05034606275139253	0.4622830810018609	-0.023011742144276925	-0.051989820119430985
7	0.23333333333333361	0.47364948383629457	-0.03440952129531216	-0.17209691274127176	0.4834495959901137	-0.03219509670331755	-0.15143162480476002	0.47800990909005203	-0.02968959006880212	-0.12088735786424085	0.4768562613958356	-0.026459395363805593	-0.07641124136149924	0.5032283644741739	-0.02793665138887491	-0.09806142065597123	0.5160600300467886	-0.01588629227484084	-0.1023202002764011	0.5346020863765647	-0.0018339835801031157	-0.11184567141494361	0.49836852918006647	0.020307859028974362	-0.11508669482783873	0.4980076253772321	-0.017946468408873928	-0.08775956042321292	0.5158807013344525	-0.015545720385856221	-0.08608936140590845	0.5373414589242297	0.0030695895500759685	-0.09259441095698939	0.5038204299341587	0.03251989458453619	-0.09486774987234342	0.5001324610160595	-0.007793906936209627	-0.07390098783963828	0.5179369063145993	-0.008800355234741875	-0.07125735597538718	0.5388712194716218	0.004294408773254932	-0.0744918060397099	0.512902962040313	0.035261348668196524	-0.07330055731489638	0.5124693644456774	-0.025397565324319915	-0.051446859815160506	0.5241359944668622	-0.013862634981410826	-0.0563289829120342	0.5409799273608669	-0.0013360348097969377	-0.0567511579975033	0.5178721661653755	0.025607290155445606	-0.05035021561770614	0.4622830810018609	-0.023011742144276925	-0.051989820119430985
